<?xml version="1.0" encoding="UTF-8"?>
<svg width="16px" height="16px" viewBox="0 0 16 16" version="1.1" xmlns="http://www.w3.org/2000/svg" xmlns:xlink="http://www.w3.org/1999/xlink">
    <!-- Generator: Sketch 59 (86127) - https://sketch.com -->
    <title>修改密码</title>
    <desc>Created with Sketch.</desc>
    <g id="页面-1" stroke="none" stroke-width="1" fill="none" fill-rule="evenodd">
        <g id="头像下拉" transform="translate(-980.000000, -251.000000)" fill-rule="nonzero">
            <g id="修改密码" transform="translate(980.000000, 251.000000)">
                <rect id="矩形" fill="#000000" opacity="0" x="0" y="0.0156097561" width="15.9843902" height="15.9843902"></rect>
                <path d="M8.99121951,5.01073171 L8.99121951,7.00878049 L0,7.00878049 L0,5.01073171 L8.99121951,5.01073171 Z M0,7.00878049 L1.99804878,7.00878049 L1.99804878,16 L0,16 L0,7.00878049 Z M15.9843902,15.0009756 L13.9863415,15.0009756 L13.9863415,10.0058537 L15.9843902,10.0058537 L15.9843902,15.0009756 Z M9.3428761,11.9929132 L8.00318439,10.6532215 L14.6337093,4.02269659 L15.973401,5.36238829 L9.3428761,11.9929132 Z M11.6406322,3.63607415 C11.0096812,2.40666511 9.61804261,1.77026133 8.27539588,2.09713357 C6.93274915,2.42400581 5.9893756,3.62887681 5.99414634,5.01073171 L3.99609163,5.01073171 C3.99269036,2.78944916 5.45878839,0.833676466 7.59187716,0.213966818 C9.72496594,-0.405742829 12.0107814,0.460015688 13.1981112,2.33734244 L11.6406322,3.63607415 Z M1.99804878,16 L1.99804878,14.0019512 L15.9843902,14.0019512 L15.9843902,16 L1.99804878,16 Z" id="形状" fill="#297EEE"></path>
            </g>
        </g>
    </g>
</svg>