<?xml version="1.0" encoding="UTF-8"?>
<svg width="16px" height="16px" viewBox="0 0 16 16" version="1.1" xmlns="http://www.w3.org/2000/svg" xmlns:xlink="http://www.w3.org/1999/xlink">
    <!-- Generator: Sketch 59 (86127) - https://sketch.com -->
    <title>退出</title>
    <desc>Created with Sketch.</desc>
    <g id="页面-1" stroke="none" stroke-width="1" fill="none" fill-rule="evenodd">
        <g id="头像下拉" transform="translate(-980.000000, -306.000000)" fill-rule="nonzero">
            <g id="退出" transform="translate(980.000000, 306.000000)">
                <rect id="矩形" fill="#000000" opacity="0" x="0" y="0" width="16" height="16"></rect>
                <path d="M11.0758274,2.60648082 C13.9689487,3.65643458 16,6.13852477 16,9.03535039 C16,12.8815661 12.4177965,16 7.99940065,16 C3.58215656,16 0,12.8815661 0,9.03631202 C0,6.13948641 2.03326073,3.65739622 4.92414906,2.60746291 L4.92414906,5.02747578 C3.43852526,5.89226154 2.46203926,7.36384591 2.46203926,9.036312 C2.46203926,11.6986187 4.94107173,13.8576368 8.00055233,13.8576368 C11.0611376,13.8576368 13.5401936,11.6996622 13.5401936,9.036312 C13.5401936,7.36484847 12.5614512,5.89330502 11.0758274,5.02747578 L11.0758274,2.60648082 Z M9.06666667,0 L9.06666667,7 L6.93333333,7 L6.93333333,0 L9.06666667,0 Z" id="形状" fill="#297EEE"></path>
            </g>
        </g>
    </g>
</svg>